<mxfile host="app.diagrams.net" modified="2022-12-21T08:39:13.467Z" agent="5.0 (Windows NT 10.0; Win64; x64) AppleWebKit/537.36 (KHTML, like Gecko) Chrome/89.0.4389.90 Safari/537.36" etag="Rl65zS6nQ--v__pmIUry" version="20.7.4" type="github">
  <diagram id="7T7MonHKwHMvLez-01XR" name="第 1 页">
    <mxGraphModel dx="1050" dy="549" grid="1" gridSize="10" guides="1" tooltips="1" connect="1" arrows="1" fold="1" page="1" pageScale="1" pageWidth="827" pageHeight="1169" math="0" shadow="0">
      <root>
        <mxCell id="0" />
        <mxCell id="1" parent="0" />
        <mxCell id="1y7mV7vCrRuitB5O1Q9M-1" value="&lt;font color=&quot;#1a1919&quot;&gt;application 应用&lt;/font&gt;" style="rounded=1;whiteSpace=wrap;html=1;shadow=1;sketch=1;curveFitting=1;jiggle=2;" vertex="1" parent="1">
          <mxGeometry x="235" y="100" width="355" height="40" as="geometry" />
        </mxCell>
        <mxCell id="1y7mV7vCrRuitB5O1Q9M-2" value="操作系统&amp;nbsp;" style="rounded=1;whiteSpace=wrap;html=1;sketch=1;curveFitting=1;jiggle=2;" vertex="1" parent="1">
          <mxGeometry x="235" y="160" width="355" height="60" as="geometry" />
        </mxCell>
        <mxCell id="1y7mV7vCrRuitB5O1Q9M-6" value="" style="shape=ext;double=1;rounded=0;whiteSpace=wrap;html=1;shadow=1;sketch=1;fontColor=#1a1919;" vertex="1" parent="1">
          <mxGeometry x="235" y="230" width="355" height="70" as="geometry" />
        </mxCell>
        <mxCell id="1y7mV7vCrRuitB5O1Q9M-3" value="内存" style="shape=ext;double=1;rounded=1;whiteSpace=wrap;html=1;shadow=1;sketch=1;fontColor=#1a1919;" vertex="1" parent="1">
          <mxGeometry x="250" y="240" width="90" height="50" as="geometry" />
        </mxCell>
        <mxCell id="1y7mV7vCrRuitB5O1Q9M-4" value="CPU" style="shape=ext;double=1;rounded=1;whiteSpace=wrap;html=1;shadow=1;sketch=1;fontColor=#1a1919;" vertex="1" parent="1">
          <mxGeometry x="363.5" y="240" width="96.5" height="50" as="geometry" />
        </mxCell>
        <mxCell id="1y7mV7vCrRuitB5O1Q9M-5" value="磁盘" style="shape=ext;double=1;rounded=1;whiteSpace=wrap;html=1;shadow=1;sketch=1;fontColor=#1a1919;" vertex="1" parent="1">
          <mxGeometry x="480" y="240" width="100" height="50" as="geometry" />
        </mxCell>
        <mxCell id="1y7mV7vCrRuitB5O1Q9M-7" value="" style="shape=curlyBracket;whiteSpace=wrap;html=1;rounded=1;flipH=1;labelPosition=right;verticalLabelPosition=middle;align=left;verticalAlign=middle;shadow=1;sketch=1;fontColor=#1a1919;" vertex="1" parent="1">
          <mxGeometry x="610" y="230" width="20" height="70" as="geometry" />
        </mxCell>
        <mxCell id="1y7mV7vCrRuitB5O1Q9M-9" value="&lt;font style=&quot;font-weight: normal; font-size: 15px;&quot; face=&quot;Georgia&quot;&gt;硬件设备&lt;/font&gt;" style="text;strokeColor=none;fillColor=none;html=1;fontSize=24;fontStyle=1;verticalAlign=middle;align=center;shadow=1;sketch=1;fontColor=#1a1919;" vertex="1" parent="1">
          <mxGeometry x="620" y="245" width="100" height="40" as="geometry" />
        </mxCell>
        <mxCell id="1y7mV7vCrRuitB5O1Q9M-10" value="Kernal" style="shape=ext;double=1;rounded=1;whiteSpace=wrap;html=1;shadow=1;sketch=1;fontFamily=Georgia;fontSize=15;fontColor=#1a1919;" vertex="1" parent="1">
          <mxGeometry x="340" y="200" width="150" height="20" as="geometry" />
        </mxCell>
      </root>
    </mxGraphModel>
  </diagram>
</mxfile>
